<svg xmlns="http://www.w3.org/2000/svg" viewBox="0 0 2880 1800"><defs><style>.cls-1{fill:#ff6a00;}.cls-2{fill:none;stroke:#893903;stroke-width:8px;}.cls-10,.cls-2,.cls-8,.cls-9{stroke-miterlimit:10;}.cls-10,.cls-3,.cls-8,.cls-9{fill:#c4c4c4;}.cls-4{opacity:0.55;}.cls-5{fill:#893903;}.cls-6{fill:#fff;}.cls-7{fill:#f1592a;}.cls-10,.cls-8,.cls-9{stroke:#fff;}.cls-8{stroke-width:4px;}.cls-9{stroke-width:3px;}.cls-10{stroke-width:2px;}</style></defs><g id="Layer_1" data-name="Layer 1"><polygon class="cls-1" points="380.4 -15.37 411.03 1255.74 2576.75 1924.75 -86.15 1930.49 -86.15 -39.01 380.4 -15.37"/><line class="cls-2" x1="141.43" y1="1658.92" x2="-80.21" y2="1744.84"/><polygon class="cls-3" points="107 1562.63 120.62 1714.18 624.63 1915.1 1054.64 1932.35 107 1562.63"/><polygon class="cls-3" points="461.25 -21.23 439.03 1239.72 2690.88 1911.97 2931.62 1904.38 2905.7 -13.64 461.25 -21.23"/><polyline class="cls-2" points="-30.24 149.44 441.68 114.58 -27.75 31.15"/><polyline class="cls-2" points="-20.28 165.63 446.66 251.55 -36.47 313.81"/><line class="cls-2" x1="-26.51" y1="344.94" x2="459.11" y2="461.98"/><line class="cls-2" x1="447.91" y1="559.11" x2="-21.53" y2="671.18"/><line class="cls-2" x1="-27.75" y1="458.25" x2="462.85" y2="376.07"/><line class="cls-2" x1="451.64" y1="769.55" x2="-32.73" y2="895.31"/><line class="cls-2" x1="420.35" y1="1130.97" x2="-73.98" y2="1284.12"/><line class="cls-2" x1="114.04" y1="1453.47" x2="-64.02" y2="1387.47"/><line class="cls-2" x1="-66.51" y1="1108.55" x2="421.6" y2="1255.49"/><line class="cls-2" x1="-26.51" y1="749.62" x2="434.21" y2="872.9"/><line class="cls-2" x1="-31.49" y1="513.04" x2="431.72" y2="635.07"/><line class="cls-2" x1="-25.26" y1="42.36" x2="440.44" y2="7.49"/><polygon class="cls-4" points="79.76 1760.15 120.62 1714.18 580.36 1894.67 401.57 1898.07 79.76 1760.15"/><polyline points="586.77 1227.28 2906.09 1814.57 2897.2 1174.48 586.77 1227.28"/></g><g id="Layer_3" data-name="Layer 3"><polygon class="cls-3" points="405.88 1279.65 26.32 1479.74 1159.65 1899.76 2300.01 1907.53 405.88 1279.65"/><polygon points="26.32 1479.74 26.32 1544.92 1054.64 1932.35 1220.45 1916.88 26.32 1479.74"/><polygon points="1179.29 1588.49 1093.72 1656.94 1382.94 1763.05 1470.22 1694.59 1179.29 1588.49"/><polygon points="1519.85 1706.57 1311.06 1893.11 1855.28 1908.52 1934 1836.64 1519.85 1706.57"/><polygon points="1045.8 1686.04 956.81 1757.91 1254.59 1872.58 1352.13 1787.01 1045.8 1686.04"/><polygon points="1124.52 1574.8 891.78 1752.78 528.97 1617.58 785.67 1470.41 1124.52 1574.8"/><polygon points="378.37 1343.77 659.03 1465.27 371.52 1573.09 359.55 1359.17 378.37 1343.77"/><path class="cls-5" d="M425.49,1807.59s51.59-40.44,54.38-96.21l248.36-46.61s-1.13,81.66-38.56,106.61Z"/><path class="cls-6" d="M728.23,1664.77s-24.11-18.34-112.31-23.53L373.79,1677.5s55.13.26,106.08,33.88Z"/><rect x="382.97" y="1789.61" width="39.41" height="111.45"/><path class="cls-5" d="M86.86,1202.6s106.1,98.93,269.55,103.23l27.24,496.09S92.6,1743.13,86.86,1202.6Z"/><path class="cls-7" d="M373.79,1677.5s62.35-.22,106.08,33.88c0,0,1.11,52.56-54.38,96.21,0,0-18.12,5.44-41.84-5.67C383.65,1801.92,373.79,1686.31,373.79,1677.5Z"/><line class="cls-8" x1="1003.96" y1="1554.49" x2="820.04" y2="1703.67"/><line class="cls-8" x1="870.56" y1="1519.34" x2="661.13" y2="1629.89"/><line class="cls-7" x1="1439.55" y1="1700.84" x2="1184.21" y2="1607.47"/><line class="cls-9" x1="1416.57" y1="1716.22" x2="1161.23" y2="1622.86"/><line class="cls-10" x1="1388.94" y1="1736.08" x2="1133.6" y2="1642.71"/><polygon class="cls-7" points="1322.79 1790.37 1248.54 1765.36 1200.08 1836.48 1233.69 1853.67 1322.79 1790.37"/><polygon class="cls-3" points="1091.17 1725.49 1081.8 1737.22 1133.06 1756.79 1139.67 1747.43 1091.17 1725.49"/><polygon class="cls-5" points="1053.16 1703.24 996.68 1757.41 1029.09 1770.83 1072.14 1709.26 1053.16 1703.24"/></g><g id="Layer_2" data-name="Layer 2"><polygon class="cls-6" points="353.85 -30.12 376.07 1268.05 2235.33 1886.05 2720.51 1882.16 528 1267.83 479.77 -26.24 353.85 -30.12"/><polygon class="cls-6" points="1159.27 1630.55 1139.89 1638.82 1163.92 1648.9 1179.43 1638.3 1159.27 1630.55"/><polygon class="cls-3" points="1164.96 1661.3 1153.85 1672.16 1176.59 1682.23 1189.25 1669.06 1164.96 1661.3"/><polygon class="cls-3" points="1209.41 1620.73 1197.52 1630.55 1221.55 1640.89 1233.18 1631.07 1209.41 1620.73"/><path class="cls-7" d="M1222.85,1652.26c-.78,1-16,11.37-16,11.37l33.34,13.44,14.73-15.25Z"/><polygon class="cls-6" points="1275.82 1645.8 1264.19 1655.62 1284.87 1663.63 1293.14 1650.71 1275.82 1645.8"/><polygon class="cls-6" points="1250.5 1690.51 1238.09 1706.27 1268.33 1718.67 1281.51 1701.1 1250.5 1690.51"/><polygon class="cls-6" points="1412.53 1720.81 1373.93 1705.2 1351.79 1717.97 1392.66 1734.15 1412.53 1720.81"/><polygon class="cls-7" points="1326.24 1664.04 1314.61 1674.83 1334.19 1681.36 1344.69 1669.15 1326.24 1664.04"/><polygon class="cls-3" points="1379.6 1663.47 1369.67 1671.14 1388.4 1678.52 1396.92 1670 1379.6 1663.47"/><polygon class="cls-3" points="1329.65 1689.59 1316.88 1705.2 1329.37 1710.31 1339.87 1694.41 1329.65 1689.59"/><polygon class="cls-7" points="1325.96 1718.82 1311.48 1733.58 1332.77 1741.53 1340.15 1724.78 1325.96 1718.82"/><polygon class="cls-5" points="1523.55 1717.96 1417.81 1817.56 1438.21 1827.75 1535.99 1722.94 1523.55 1717.96"/><polygon class="cls-7" points="1545.74 1731.35 1562.12 1730.82 1451.19 1849.08 1438.21 1838.88 1545.74 1731.35"/><polygon class="cls-3" points="1618.93 1744.91 1495.68 1858.35 1513.29 1867.62 1633.8 1748.96 1618.93 1744.91"/><polygon class="cls-5" points="1643.07 1754.52 1528.13 1869.47 1541.1 1876.88 1657.9 1761.94 1643.07 1754.52"/><polygon class="cls-7" points="1670.88 1762.87 1569.84 1861.13 1585.6 1867.62 1680.15 1770.28 1670.88 1762.87"/><polygon class="cls-3" points="1739.48 1788.82 1641.22 1879.67 1657.9 1887.08 1760.8 1792.53 1739.48 1788.82"/><polygon class="cls-7" points="1779.34 1799.94 1690.35 1889.86 1724.65 1886.15 1799.73 1807.36 1779.34 1799.94"/><polygon class="cls-5" points="1252.21 1775.7 1248.72 1782.67 1298.68 1800.87 1308.75 1793.51 1252.21 1775.7"/><polygon class="cls-5" points="1274.6 1821.03 1278.3 1817.34 1238.09 1798.74 1228.79 1801.67 1274.6 1821.03"/><polygon class="cls-3" points="883.59 1534.45 871.71 1544.27 895.74 1554.61 907.37 1544.79 883.59 1534.45"/><polygon class="cls-3" points="936.06 1555.66 924.17 1565.48 948.21 1575.82 959.83 1566 936.06 1555.66"/><polygon class="cls-3" points="863.5 1694.08 851.61 1703.9 875.65 1714.23 887.28 1704.41 863.5 1694.08"/><polygon class="cls-3" points="815.59 1603.45 803.7 1613.27 827.73 1623.61 839.36 1613.79 815.59 1603.45"/><polygon class="cls-3" points="600.31 1596.1 588.42 1605.92 612.45 1616.26 624.08 1606.43 600.31 1596.1"/><polygon class="cls-3" points="760.1 1537.93 748.21 1547.75 772.24 1558.09 783.87 1548.27 760.1 1537.93"/><polygon class="cls-3" points="744.72 1606.8 732.83 1616.62 756.87 1626.95 768.49 1617.13 744.72 1606.8"/><polygon class="cls-3" points="1054.93 1577.38 1043.05 1587.2 1067.08 1597.54 1078.71 1587.71 1054.93 1577.38"/><polygon class="cls-3" points="946.63 1620.17 934.74 1629.99 958.77 1640.32 970.4 1630.5 946.63 1620.17"/><polygon class="cls-3" points="790.85 1678.33 778.96 1688.15 803 1698.49 814.63 1688.67 790.85 1678.33"/><polygon class="cls-3" points="752.07 1507.85 740.18 1517.67 764.22 1528.01 775.85 1518.18 752.07 1507.85"/><polygon class="cls-3" points="407.95 1367.02 365.85 1396.23 439.18 1436.4 504.42 1406.05 407.95 1367.02"/><polygon class="cls-3" points="441.51 1445.26 385.58 1468.09 483.92 1519.36 545.77 1498.08 441.51 1445.26"/><rect x="586.77" y="-12.51" width="2292.65" height="1239.79"/></g></svg>