<svg xmlns="http://www.w3.org/2000/svg" viewBox="0 0 3032.56 1459.29"><defs><style>.cls-1,.cls-18,.cls-22,.cls-24{fill:#2e1c05;}.cls-1,.cls-18,.cls-22,.cls-24,.cls-25{isolation:isolate;opacity:1;}.cls-2{fill:#231f20;}.cls-13,.cls-3{fill:#f1592a;}.cls-4{fill:#f98a6b;}.cls-10,.cls-11,.cls-12,.cls-14,.cls-16,.cls-20,.cls-21,.cls-23,.cls-27,.cls-28,.cls-29,.cls-30,.cls-5,.cls-8,.cls-9{fill:none;}.cls-10,.cls-11,.cls-12,.cls-16,.cls-5,.cls-8,.cls-9{stroke:#893903;}.cls-18,.cls-20,.cls-21,.cls-22,.cls-23,.cls-24,.cls-27,.cls-28,.cls-29,.cls-30,.cls-5{stroke-linecap:round;}.cls-10,.cls-11,.cls-12,.cls-13,.cls-14,.cls-16,.cls-19,.cls-5,.cls-8,.cls-9{stroke-miterlimit:10;}.cls-5{stroke-width:6px;}.cls-6{fill:#c4c4c4;}.cls-7{fill:#893903;}.cls-8{stroke-width:3px;}.cls-9{stroke-width:2.87px;}.cls-10{stroke-width:2.58px;}.cls-11{stroke-width:2.3px;}.cls-12{stroke-width:2.06px;}.cls-13{stroke:#f1592a;}.cls-14,.cls-18,.cls-19,.cls-20,.cls-22,.cls-23,.cls-24,.cls-29{stroke:#fff;}.cls-14{stroke-width:4px;}.cls-15,.cls-19,.cls-26{fill:#ea702e;}.cls-16{stroke-width:9px;}.cls-17,.cls-25{fill:#fff;}.cls-18,.cls-20,.cls-21,.cls-22,.cls-23,.cls-24,.cls-27,.cls-28,.cls-29,.cls-30{stroke-linejoin:round;}.cls-18,.cls-20,.cls-22,.cls-24{stroke-opacity:0.99;}.cls-18{stroke-width:6.42px;}.cls-19{stroke-width:5px;}.cls-20,.cls-21,.cls-22,.cls-23{stroke-width:12.21px;}.cls-21,.cls-27,.cls-28,.cls-30{stroke:#ea702e;}.cls-24,.cls-29,.cls-30{stroke-width:11.26px;}.cls-25{fill-opacity:0.99;}.cls-26{fill-opacity:1;}.cls-27{stroke-opacity:1;stroke-width:5.9px;}.cls-28{stroke-width:11.25px;}</style></defs><g id="Layer_1" data-name="Layer 1"><rect class="cls-1" y="-9.21" width="3032.56" height="1477"/><path class="cls-2" d="M1209.13,935.07l3.38,68s-43.16-22.41-74.7-52.3l-29.89-84.66,101.21,69"/><path class="cls-3" d="M634,1102.67c3.22,0,3.23-5,0-5s-3.22,5,0,5Z"/><ellipse class="cls-4" cx="1034.38" cy="580.8" rx="52.34" ry="55.06"/><line class="cls-5" x1="1000.32" y1="539.58" x2="1003.53" y2="623.23"/><line class="cls-5" x1="1034.38" y1="525.74" x2="1034.38" y2="635.86"/><line class="cls-5" x1="1063.05" y1="534.76" x2="1063.05" y2="628.05"/><ellipse class="cls-4" cx="1007.33" cy="356.89" rx="52.34" ry="55.06"/><line class="cls-5" x1="973.27" y1="315.67" x2="976.48" y2="399.32"/><line class="cls-5" x1="1007.33" y1="301.83" x2="1007.33" y2="411.95"/><line class="cls-5" x1="1036" y1="310.85" x2="1036" y2="404.14"/><ellipse class="cls-4" cx="1992.85" cy="408.45" rx="52.34" ry="55.06"/><line class="cls-5" x1="1958.79" y1="367.23" x2="1962" y2="450.87"/><line class="cls-5" x1="1992.85" y1="353.38" x2="1992.85" y2="463.51"/><line class="cls-5" x1="2021.52" y1="362.41" x2="2021.52" y2="455.7"/><path class="cls-6" d="M1331.53,140.31S1469,48.66,1622.34,131.5h0s-19.48,58.68-131.13,63.18-150-27.06-159.68-54.37"/><path class="cls-6" d="M1652.3,154.41s107-94.52,232.64,0c0,0-33.29,48.51-141.94,39.52s-90.7-39.52-90.7-39.52"/><ellipse class="cls-7" cx="1484.08" cy="114.3" rx="42.9" ry="27.9"/><ellipse class="cls-7" cx="1769.38" cy="129.3" rx="47.3" ry="33.11"/><line class="cls-8" x1="-65.75" y1="1365.18" x2="3053.2" y2="1375.59"/><line class="cls-8" x1="-72.69" y1="1229.88" x2="3046.26" y2="1240.28"/><line class="cls-9" x1="20.98" y1="1115.39" x2="2869.32" y2="1125.79"/><line class="cls-10" x1="381.79" y1="1014.77" x2="2688.92" y2="1025.18"/><line class="cls-11" x1="690.52" y1="921.1" x2="2525.86" y2="931.51"/><line class="cls-12" x1="923.01" y1="841.31" x2="2394.02" y2="851.72"/><circle class="cls-13" cx="1944.84" cy="555.2" r="15.7"/><path class="cls-14" d="M1224.82,290.25S1578,400.69,1684.46,184.85"/></g><g id="Layer_4" data-name="Layer 4"><polygon class="cls-15" points="1179.29 234.77 1162.66 42.36 1224.43 35.23 1233.93 230.02 1179.29 234.77"/><polygon class="cls-15" points="1267.19 26.92 1274.31 219.33 1314.7 212.2 1313.51 15.04 1267.19 26.92"/><path class="cls-16" d="M-19.25,1127.88S-36.9,564.68,273.84,521,690.52,932,690.52,932Z"/><path class="cls-17" d="M580.38,961.92s-61.15-406.36-312.4-350C70.87,656.13,85.75,1099.46,85.75,1099.46Z"/><path class="cls-18" d="M279.14,636.48l2.48,409-176,50.35S90.71,695.43,279.14,636.48Z"/><path class="cls-18" d="M342.36,1024.55,330,630.34s142.56-14.12,230.58,334Z"/><rect class="cls-18" x="28.24" y="794.63" width="178.02" height="230.37"/><polygon class="cls-15" points="1091.22 689.06 916.42 719.9 959.02 847.7 1107.38 806.57 1091.22 689.06"/><polygon class="cls-6" points="1075.06 708.15 936.98 733.13 966.36 830.07 1088.28 794.82 1075.06 708.15"/><rect class="cls-19" x="208.25" y="881.85" width="23.31" height="73.26"/><rect class="cls-19" x="224.75" y="872.48" width="25.56" height="90.3" rx="10.11"/><ellipse class="cls-4" cx="2024.37" cy="574.02" rx="52.34" ry="55.06"/><line class="cls-5" x1="1990.31" y1="532.81" x2="1993.53" y2="616.45"/><line class="cls-5" x1="2024.37" y1="518.96" x2="2024.37" y2="629.08"/><line class="cls-5" x1="2053.04" y1="527.98" x2="2053.04" y2="621.28"/><ellipse class="cls-4" cx="1976.52" cy="733.69" rx="52.34" ry="55.06"/><line class="cls-5" x1="1942.46" y1="692.48" x2="1945.68" y2="776.12"/><line class="cls-5" x1="1976.52" y1="678.63" x2="1976.52" y2="788.75"/><line class="cls-5" x1="2005.19" y1="687.65" x2="2005.19" y2="780.95"/><path class="cls-17" d="M1666.4,18.7l-14.1,135.71s109.06-93.12,232.64,0L1863.79,11.65Z"/><path class="cls-17" d="M1345.63,16.94l-14.1,123.37s75.47-42.75,153.59-42c90.71.81,137.22,33.24,137.22,33.24L1604.71,11.65Z"/><line class="cls-8" x1="1062.9" y1="829.47" x2="-69.75" y2="1327.95"/><line class="cls-8" x1="1143.21" y1="835.01" x2="-60.77" y2="1517.17"/><line class="cls-8" x1="1256.07" y1="845.52" x2="318.1" y2="1523.21"/><line class="cls-8" x1="1494.24" y1="830.78" x2="1408.3" y2="1501.11"/><line class="cls-8" x1="1344.46" y1="840.6" x2="615.2" y2="1513.39"/><line class="cls-8" x1="1417.99" y1="825.85" x2="998.25" y2="1501.11"/><line class="cls-8" x1="2187.98" y1="805.33" x2="3135.25" y2="1325.36"/><line class="cls-8" x1="1983.16" y1="812.78" x2="3126.27" y2="1514.58"/><line class="cls-8" x1="1860.26" y1="812.78" x2="2747.41" y2="1520.62"/><line class="cls-8" x1="1571.26" y1="828.19" x2="1657.2" y2="1498.52"/><line class="cls-8" x1="1721.04" y1="838.01" x2="2450.3" y2="1510.8"/><line class="cls-8" x1="1647.51" y1="823.25" x2="2067.26" y2="1498.52"/><path class="cls-6" d="M1845.18,917.7s-376-149.82-660.61,3.67l-66.42-63.63,351.4-75,256,22.26,135,52.87Z"/><path class="cls-6" d="M1209.13,935.07l3.53,68.65s-70.48-41.43-76.05-53.8l-30.91-91.5S1151.18,913.41,1209.13,935.07Z"/><path class="cls-17" d="M1209.13,935.07s-10.08-3.63-24-10C1137.78,903.37,1046,849.84,1160,800.4c200.79-87.08,535.82-54.78,689.86-9.13s53.58,159.78-60.28,155.21c0,0,26.2-12.89,41.14-30.89,15.77-19,19-43.73-34.44-65-40.18-16-312.56-95.87-560.37-11.42C1112,881.45,1209.13,935.07,1209.13,935.07Z"/><path class="cls-6" d="M1770.19,1017.57l19.4-71.09s119.56-19.85,133.86-63.78l-28.6,66.41S1860.11,981.81,1770.19,1017.57Z"/><path class="cls-6" d="M1014.87,826.63l-1,53s-25.54,3-41.26,32.42c0,0,16.7,15.72,95.3,3.93,0,0-1-32.42-43.23-40.28l5.9-55Z"/><ellipse class="cls-6" cx="1888.26" cy="570.91" rx="86.86" ry="101"/><path class="cls-17" d="M1028.29,281.18s531.35-259,922.05,15.63L1849.87,794.67S1512.76,689.74,1160,803.6Z"/><path class="cls-15" d="M1072.94,299s482.24-218.79,839.44,6.7l-82.6,484.47S1483,705,1160,803.6Z"/><path class="cls-2" d="M1133.22,337s384-133.95,725.58-2.23L1803,727.7s-230-55.82-605-6.7Z"/><polygon class="cls-6" points="1498.23 911.34 1514.02 961.33 1433.78 961.33 1452.19 904.77 1498.23 911.34"/><path class="cls-7" d="M1554.79,912.66s-96,19.73-155.21-5.26l-17.1-69.72L1418,825.85l-14.46-72.35s72.34-36.83,169.67-2.63l-25,76.29,34.2,15.79Z"/><ellipse class="cls-4" cx="1892.16" cy="634.41" rx="10.78" ry="7.41" transform="translate(812.14 2312.6) rotate(-75.77)"/><ellipse class="cls-4" cx="1915.84" cy="532.78" rx="12.32" ry="8.47" transform="translate(928.52 2258.9) rotate(-75.77)"/><path class="cls-14" d="M1915.84,532.78s299.58,215.62,408.84-62.71"/><path class="cls-14" d="M1892.16,634.41s296,76.14,459.63-105.4"/></g><g id="Layer_5" data-name="Layer 5"><path class="cls-20" d="M715,1182l51.89-14.32,75.16-132.44-14.33-51.9-33.11-18.79-51.9,14.32-75.15,132.45,14.33,51.89Z"/><path class="cls-20" d="M582.73,1412.43l45.53-37,39-68.82-6.67-28.32L715,1182l-33.11-18.79-55.66,95.58-25.66,11.48-39.18,69-10.81,54.91Z"/><path class="cls-20" d="M586.54,1370.9,637.6,1282"/><path class="cls-20" d="M732.81,1146.87l75.35-129.62"/><path class="cls-20" d="M700.15,1129.54,775.82,998.3"/><path class="cls-20" d="M588.66,1393.13l-2.39-20.87-19.66,8.36"/><path class="cls-21" d="M723.53,720.09s-42.17-8.5-72.29,18.73c-26.75,24.18-26.38,55.53-30,57.11-13.27,5.83-52.33,20.88-56,67.4-3.06,38.79,13.84,60.3,54.25,78.51s103.34,14.31,103.34,14.31"/><path class="cls-21" d="M836.14,748.7s42.56.36,42.13,42.54c-.37,36.17-41.46,43.3-41.46,43.3"/><path class="cls-21" d="M617.75,964.74s-43.12,23.25-60.85,55.1c-21.83,39.27-13.94,81.63,4.48,110.82"/><path class="cls-22" d="M495.56,737l5.59,37.65,5.65,37.66-75.3,11.24-5.65-37.65-5.6-37.66-31.82,44.85,5.41,36,43.25,32.06,33.73,225.86-32,43.31,11.25,75.3,43.24,32,75.31-11.24,32.06-43.24-11.24-75.31-43.31-32L512.4,850l32.06-43.3L539,770.65Zm56.67,377,11.25,75.3-75.31,11.24-11.24-75.3Z"/><path class="cls-21" d="M629.83,760.91s-22.72-32.56,1-56.43c23.26-23.45,57.63-5.85,67.57,11.7"/><path class="cls-21" d="M864.58,939.55s48.07-27,57.48-59.7C933,841.78,923.19,816,917.89,803"/><path class="cls-21" d="M839.12,891.26s-24.51,61.13,14.58,99.5,76.69,49.8,99.36,91.69c22.53,41.62,23,81.78-2.67,115.65-23,30.41-61.66,30.82-61.66,30.82s-.12,24.75-.47,54.93c-.23,20.14-15.39,49.43-45.93,51.49-13.33.9-17.73.65-49.89.92"/><path class="cls-21" d="M809.19,1220.19c-13.91,9.75-43.48,13.1-43.48,13.1s-.28,37.45.28,62.9c.28,12.69-12.62,39.06-42.43,41.66A382.22,382.22,0,0,1,671,1339"/><path class="cls-21" d="M603,860.66s30.47,0,19.21,29.27"/><path class="cls-21" d="M655.29,876.27s-22.52-19.51-34.45,12.36"/><path class="cls-15" d="M674.16,842.3a8.28,8.28,0,1,1,8.28,8.13A8.2,8.2,0,0,1,674.16,842.3Z"/><path class="cls-15" d="M622.49,820.49a8.28,8.28,0,1,1,8.28,8.13A8.21,8.21,0,0,1,622.49,820.49Z"/><path class="cls-23" d="M600.94,784.8l73.53,25.73L748,836.26s-5.42,21.5-8.72,34.28-39.85,18-57,12.11c-40.72-14.06-38.87-46.19-38.87-46.19s-15.2,26.84-42.33,14.14c-19.06-8.92-18.33-27.43-15.64-36.34S600.94,784.8,600.94,784.8Z"/><path class="cls-21" d="M639.45,1027.75s-39.57,61.67-34.69,101.5c7.31,59.7,25.79,75.5,46.52,81.63"/><path class="cls-21" d="M844.46,1139.69c-3.27,61.68-22.68,70.19-36.41,80s-42.9,13.22-42.9,13.22-.28,37.8.28,63.47c.28,12.81-12.46,39.41-41.87,42a369.31,369.31,0,0,1-51.85,1.11"/><path class="cls-24" d="M2570.31,894.77l-26.64,174.55-208.2,4.2,187.17,189.27,234.84-11.91,39.95-263.58Z"/><path class="cls-24" d="M2587.83,934,2571,1064.41l168.94,129,25.24-183.66Z"/><path class="cls-24" d="M2540.87,1071.42,2754,1245.27"/><path class="cls-25" d="M2516.31,1098.35a7.45,7.45,0,1,1,7.43,6.87A7.16,7.16,0,0,1,2516.31,1098.35Z"/><path class="cls-25" d="M2542.1,1121.7a7.45,7.45,0,1,1,7.42,6.86A7.16,7.16,0,0,1,2542.1,1121.7Z"/><path class="cls-25" d="M2569.63,1145.39a7.44,7.44,0,1,1,7.42,6.87A7.15,7.15,0,0,1,2569.63,1145.39Z"/><path class="cls-25" d="M2595.41,1169.09a7.45,7.45,0,1,1,7.42,6.86A7.16,7.16,0,0,1,2595.41,1169.09Z"/><path class="cls-25" d="M2517.58,1150.88a7.45,7.45,0,1,1,7.43,6.87A7.16,7.16,0,0,1,2517.58,1150.88Z"/><path class="cls-25" d="M2543.37,1174.23a7.45,7.45,0,1,1,7.42,6.87A7.16,7.16,0,0,1,2543.37,1174.23Z"/><path class="cls-25" d="M2570.89,1197.92a7.45,7.45,0,1,1,7.43,6.87A7.16,7.16,0,0,1,2570.89,1197.92Z"/><path class="cls-25" d="M2596.68,1221.62a7.45,7.45,0,1,1,7.42,6.86A7.16,7.16,0,0,1,2596.68,1221.62Z"/><path class="cls-25" d="M2465.48,1159.78a7.45,7.45,0,1,1,7.42,6.87A7.16,7.16,0,0,1,2465.48,1159.78Z"/><path class="cls-25" d="M2491.26,1183.12a7.45,7.45,0,1,1,7.43,6.87A7.16,7.16,0,0,1,2491.26,1183.12Z"/><path class="cls-25" d="M2518.79,1206.82a7.45,7.45,0,1,1,7.42,6.86A7.16,7.16,0,0,1,2518.79,1206.82Z"/><path class="cls-25" d="M2544.57,1230.51a7.45,7.45,0,1,1,7.43,6.87A7.16,7.16,0,0,1,2544.57,1230.51Z"/><path class="cls-26" d="M2697.6,1126.85l-28.89-22.31,11-36.09h35.71l11,36.09Z"/><path class="cls-27" d="M2593.87,1020.11s62.17,40.55,64.53-33.58"/><path class="cls-27" d="M2603.3,1061.14l43.43-18.05v26.84l18.45-20.23,14.24-14.42,9.27,21,25.86-48.79"/><path class="cls-28" d="M2194.26,743.83S2161,655,2162.77,586.15s21.93-157.3,46.29-156.09S2263.77,540,2260.19,591s-15.83,155.52-15.83,155.52,20.32-6.26,42.17-6.12,45.25,6.7,45.25,6.7-29.33-109.4-9.69-145.87,51.81-36.6,79.12-16.15,43.06,65.67,30.15,98c-6.7,16.74-29.61,28-52.21,12.92-11.86-7.9-29.61-58.13-29.61-58.13"/><path class="cls-29" d="M2198,843.48l86,.06,90.19,0s5.71,24.63,1.07,34.63-21.88,19.62-38.63,19.82c-39.73.48-51.45-25.24-51.45-25.24S2269.54,897,2237.84,898c-19.39.64-35.3-9.09-39.58-18.72S2198,843.48,2198,843.48Z"/><path class="cls-15" d="M2229,863.59a7.64,7.64,0,1,1,7.63,7.5A7.55,7.55,0,0,1,2229,863.59Z"/><path class="cls-15" d="M2327,865.84a7.64,7.64,0,1,1,7.64,7.49A7.57,7.57,0,0,1,2327,865.84Z"/><path class="cls-30" d="M2261.38,899.17s27.1-7.47,24.26,21.31"/><path class="cls-30" d="M2311.74,900.22s-24.81-11.83-27.6,19.43"/><path class="cls-30" d="M2159.79,796.23c-8.25,28.17,13.11,71.39,13.11,71.39s-34.72,48.58,4.49,80.25,72.41,31,108.6,31.67c36.48.74,87.7-7.38,113.2-36.17,30.11-34-6.8-75.75-6.8-75.75s23.8-53.42,5.83-78.18"/><path class="cls-30" d="M2163.68,976.45c-11.86,11.64-23.57,20.6-34.69,28.75-22.69,16.62-42.93,29.9-57,55.83-20.78,38.39-21.19,75.43,2.46,106.67,21.24,28,56.88,28.44,56.88,28.44s.11,22.82.43,50.66c.21,18.58,14.19,45.6,42.36,47.5,12.3.83,16.36.6,46,.84"/><path class="cls-30" d="M2175.31,1117.45c3,56.89,20.92,64.74,33.58,73.82s39.57,12.2,39.57,12.2.26,34.86-.25,58.54c-.26,11.81,11.49,36.36,38.62,38.78a339.68,339.68,0,0,0,47.83,1"/><path class="cls-30" d="M2240.64,1034.93s7.19,50.35,32.18,69.33c29.1,22.11,54.54,22.27,67.5,22"/><path class="cls-30" d="M2376,1004.87s7.19,50.36,32.18,69.34c29.1,22.11,54.55,22.27,67.5,22"/></g></svg>